<mxfile host="app.diagrams.net" modified="2020-10-23T05:06:46.599Z" agent="5.0 (Macintosh; Intel Mac OS X 10_15_7) AppleWebKit/537.36 (KHTML, like Gecko) Chrome/86.0.4240.80 Safari/537.36" etag="t5pkv-uZoZsoea2pZ68h" version="13.8.1" type="github">
  <diagram id="C5RBs43oDa-KdzZeNtuy" name="Page-1">
    <mxGraphModel dx="1298" dy="866" grid="1" gridSize="10" guides="1" tooltips="1" connect="1" arrows="1" fold="1" page="1" pageScale="1" pageWidth="827" pageHeight="1169" math="0" shadow="0">
      <root>
        <mxCell id="WIyWlLk6GJQsqaUBKTNV-0" />
        <mxCell id="WIyWlLk6GJQsqaUBKTNV-1" parent="WIyWlLk6GJQsqaUBKTNV-0" />
        <object label="BattleCruiser" placeAllShipsRandomly="" id="4JAjK0Tffetzs99QHqa4-58">
          <mxCell style="swimlane;fontStyle=0;align=center;verticalAlign=top;childLayout=stackLayout;horizontal=1;startSize=26;horizontalStack=0;resizeParent=1;resizeLast=0;collapsible=1;marginBottom=0;rounded=0;shadow=0;strokeWidth=1;" vertex="1" parent="WIyWlLk6GJQsqaUBKTNV-1">
            <mxGeometry x="640" width="160" height="90" as="geometry">
              <mxRectangle x="550" y="140" width="160" height="26" as="alternateBounds" />
            </mxGeometry>
          </mxCell>
        </object>
        <mxCell id="4JAjK0Tffetzs99QHqa4-59" value="" style="line;html=1;strokeWidth=1;align=left;verticalAlign=middle;spacingTop=-1;spacingLeft=3;spacingRight=3;rotatable=0;labelPosition=right;points=[];portConstraint=eastwest;" vertex="1" parent="4JAjK0Tffetzs99QHqa4-58">
          <mxGeometry y="26" width="160" height="8" as="geometry" />
        </mxCell>
        <object label="getShipType" ocean="" id="4JAjK0Tffetzs99QHqa4-60">
          <mxCell style="text;align=left;verticalAlign=top;spacingLeft=4;spacingRight=4;overflow=hidden;rotatable=0;points=[[0,0.5],[1,0.5]];portConstraint=eastwest;fontColor=#FF0080;" vertex="1" parent="4JAjK0Tffetzs99QHqa4-58">
            <mxGeometry y="34" width="160" height="26" as="geometry" />
          </mxCell>
        </object>
        <object label="BattleCruiser()" ocean="" id="4JAjK0Tffetzs99QHqa4-71">
          <mxCell style="text;align=left;verticalAlign=top;spacingLeft=4;spacingRight=4;overflow=hidden;rotatable=0;points=[[0,0.5],[1,0.5]];portConstraint=eastwest;" vertex="1" parent="4JAjK0Tffetzs99QHqa4-58">
            <mxGeometry y="60" width="160" height="26" as="geometry" />
          </mxCell>
        </object>
        <object label="Ocean" placeAllShipsRandomly="" id="zkfFHV4jXpPFQw0GAbJ--17">
          <mxCell style="swimlane;fontStyle=0;align=center;verticalAlign=top;childLayout=stackLayout;horizontal=1;startSize=26;horizontalStack=0;resizeParent=1;resizeLast=0;collapsible=1;marginBottom=0;rounded=0;shadow=0;strokeWidth=1;" parent="WIyWlLk6GJQsqaUBKTNV-1" vertex="1">
            <mxGeometry x="20" y="130" width="160" height="290" as="geometry">
              <mxRectangle x="550" y="140" width="160" height="26" as="alternateBounds" />
            </mxGeometry>
          </mxCell>
        </object>
        <mxCell id="zkfFHV4jXpPFQw0GAbJ--19" value="shotsFired" style="text;align=left;verticalAlign=top;spacingLeft=4;spacingRight=4;overflow=hidden;rotatable=0;points=[[0,0.5],[1,0.5]];portConstraint=eastwest;rounded=0;shadow=0;html=0;" parent="zkfFHV4jXpPFQw0GAbJ--17" vertex="1">
          <mxGeometry y="26" width="160" height="26" as="geometry" />
        </mxCell>
        <mxCell id="zkfFHV4jXpPFQw0GAbJ--18" value="private Ship[][] ships " style="text;align=left;verticalAlign=top;spacingLeft=4;spacingRight=4;overflow=hidden;rotatable=0;points=[[0,0.5],[1,0.5]];portConstraint=eastwest;fontColor=#3333FF;" parent="zkfFHV4jXpPFQw0GAbJ--17" vertex="1">
          <mxGeometry y="52" width="160" height="22" as="geometry" />
        </mxCell>
        <object label="shipsSunk" id="zkfFHV4jXpPFQw0GAbJ--20">
          <mxCell style="text;align=left;verticalAlign=top;spacingLeft=4;spacingRight=4;overflow=hidden;rotatable=0;points=[[0,0.5],[1,0.5]];portConstraint=eastwest;rounded=0;shadow=0;html=0;" parent="zkfFHV4jXpPFQw0GAbJ--17" vertex="1">
            <mxGeometry y="74" width="160" height="26" as="geometry" />
          </mxCell>
        </object>
        <mxCell id="zkfFHV4jXpPFQw0GAbJ--21" value="hitCount" style="text;align=left;verticalAlign=top;spacingLeft=4;spacingRight=4;overflow=hidden;rotatable=0;points=[[0,0.5],[1,0.5]];portConstraint=eastwest;rounded=0;shadow=0;html=0;" parent="zkfFHV4jXpPFQw0GAbJ--17" vertex="1">
          <mxGeometry y="100" width="160" height="26" as="geometry" />
        </mxCell>
        <mxCell id="zkfFHV4jXpPFQw0GAbJ--23" value="" style="line;html=1;strokeWidth=1;align=left;verticalAlign=middle;spacingTop=-1;spacingLeft=3;spacingRight=3;rotatable=0;labelPosition=right;points=[];portConstraint=eastwest;" parent="zkfFHV4jXpPFQw0GAbJ--17" vertex="1">
          <mxGeometry y="126" width="160" height="8" as="geometry" />
        </mxCell>
        <object label="PlaceAllShipsRandomly " ocean="" id="4JAjK0Tffetzs99QHqa4-2">
          <mxCell style="text;align=left;verticalAlign=top;spacingLeft=4;spacingRight=4;overflow=hidden;rotatable=0;points=[[0,0.5],[1,0.5]];portConstraint=eastwest;" vertex="1" parent="zkfFHV4jXpPFQw0GAbJ--17">
            <mxGeometry y="134" width="160" height="26" as="geometry" />
          </mxCell>
        </object>
        <object label="IsOccupied" ocean="" id="zkfFHV4jXpPFQw0GAbJ--25">
          <mxCell style="text;align=left;verticalAlign=top;spacingLeft=4;spacingRight=4;overflow=hidden;rotatable=0;points=[[0,0.5],[1,0.5]];portConstraint=eastwest;" parent="zkfFHV4jXpPFQw0GAbJ--17" vertex="1">
            <mxGeometry y="160" width="160" height="26" as="geometry" />
          </mxCell>
        </object>
        <object label="shootAt" ocean="" id="4JAjK0Tffetzs99QHqa4-3">
          <mxCell style="text;align=left;verticalAlign=top;spacingLeft=4;spacingRight=4;overflow=hidden;rotatable=0;points=[[0,0.5],[1,0.5]];portConstraint=eastwest;" vertex="1" parent="zkfFHV4jXpPFQw0GAbJ--17">
            <mxGeometry y="186" width="160" height="26" as="geometry" />
          </mxCell>
        </object>
        <object label="Print" ocean="" id="4JAjK0Tffetzs99QHqa4-4">
          <mxCell style="text;align=left;verticalAlign=top;spacingLeft=4;spacingRight=4;overflow=hidden;rotatable=0;points=[[0,0.5],[1,0.5]];portConstraint=eastwest;" vertex="1" parent="zkfFHV4jXpPFQw0GAbJ--17">
            <mxGeometry y="212" width="160" height="26" as="geometry" />
          </mxCell>
        </object>
        <object label="toString" ocean="" id="4JAjK0Tffetzs99QHqa4-5">
          <mxCell style="text;align=left;verticalAlign=top;spacingLeft=4;spacingRight=4;overflow=hidden;rotatable=0;points=[[0,0.5],[1,0.5]];portConstraint=eastwest;fontColor=#FF0080;" vertex="1" parent="zkfFHV4jXpPFQw0GAbJ--17">
            <mxGeometry y="238" width="160" height="26" as="geometry" />
          </mxCell>
        </object>
        <object label="PrintOcean" ocean="" id="4JAjK0Tffetzs99QHqa4-6">
          <mxCell style="text;align=left;verticalAlign=top;spacingLeft=4;spacingRight=4;overflow=hidden;rotatable=0;points=[[0,0.5],[1,0.5]];portConstraint=eastwest;" vertex="1" parent="zkfFHV4jXpPFQw0GAbJ--17">
            <mxGeometry y="264" width="160" height="26" as="geometry" />
          </mxCell>
        </object>
        <mxCell id="zkfFHV4jXpPFQw0GAbJ--0" value="Game" style="swimlane;fontStyle=2;align=center;verticalAlign=top;childLayout=stackLayout;horizontal=1;startSize=26;horizontalStack=0;resizeParent=1;resizeLast=0;collapsible=1;marginBottom=0;rounded=0;shadow=0;strokeWidth=1;" parent="WIyWlLk6GJQsqaUBKTNV-1" vertex="1">
          <mxGeometry x="20" y="10" width="160" height="80" as="geometry">
            <mxRectangle x="230" y="140" width="160" height="26" as="alternateBounds" />
          </mxGeometry>
        </mxCell>
        <mxCell id="4JAjK0Tffetzs99QHqa4-0" value="&lt;font color=&quot;#3333ff&quot;&gt;Ocean&lt;/font&gt;" style="text;html=1;resizable=0;autosize=1;align=center;verticalAlign=middle;points=[];fillColor=none;strokeColor=none;rounded=0;" vertex="1" parent="zkfFHV4jXpPFQw0GAbJ--0">
          <mxGeometry y="26" width="160" height="20" as="geometry" />
        </mxCell>
        <mxCell id="zkfFHV4jXpPFQw0GAbJ--2" value="Ocean ocean" style="text;align=left;verticalAlign=top;spacingLeft=4;spacingRight=4;overflow=hidden;rotatable=0;points=[[0,0.5],[1,0.5]];portConstraint=eastwest;rounded=0;shadow=0;html=0;" parent="zkfFHV4jXpPFQw0GAbJ--0" vertex="1">
          <mxGeometry y="46" width="160" height="6" as="geometry" />
        </mxCell>
        <mxCell id="zkfFHV4jXpPFQw0GAbJ--4" value="" style="line;html=1;strokeWidth=1;align=left;verticalAlign=middle;spacingTop=-1;spacingLeft=3;spacingRight=3;rotatable=0;labelPosition=right;points=[];portConstraint=eastwest;" parent="zkfFHV4jXpPFQw0GAbJ--0" vertex="1">
          <mxGeometry y="52" width="160" height="8" as="geometry" />
        </mxCell>
        <mxCell id="4JAjK0Tffetzs99QHqa4-1" value="scanner&amp;nbsp;" style="text;html=1;resizable=0;autosize=1;align=center;verticalAlign=middle;points=[];fillColor=none;strokeColor=none;rounded=0;" vertex="1" parent="zkfFHV4jXpPFQw0GAbJ--0">
          <mxGeometry y="60" width="160" height="20" as="geometry" />
        </mxCell>
        <object label="Abstract Ship" placeAllShipsRandomly="" id="4JAjK0Tffetzs99QHqa4-7">
          <mxCell style="swimlane;fontStyle=0;align=center;verticalAlign=top;childLayout=stackLayout;horizontal=1;startSize=26;horizontalStack=0;resizeParent=1;resizeLast=0;collapsible=1;marginBottom=0;rounded=0;shadow=0;strokeWidth=1;" vertex="1" parent="WIyWlLk6GJQsqaUBKTNV-1">
            <mxGeometry x="380" y="10" width="160" height="316" as="geometry">
              <mxRectangle x="550" y="140" width="160" height="26" as="alternateBounds" />
            </mxGeometry>
          </mxCell>
        </object>
        <mxCell id="4JAjK0Tffetzs99QHqa4-8" value="private int FronRow" style="text;align=left;verticalAlign=top;spacingLeft=4;spacingRight=4;overflow=hidden;rotatable=0;points=[[0,0.5],[1,0.5]];portConstraint=eastwest;rounded=0;shadow=0;html=0;" vertex="1" parent="4JAjK0Tffetzs99QHqa4-7">
          <mxGeometry y="26" width="160" height="26" as="geometry" />
        </mxCell>
        <mxCell id="4JAjK0Tffetzs99QHqa4-9" value="private int FrontColoumn" style="text;align=left;verticalAlign=top;spacingLeft=4;spacingRight=4;overflow=hidden;rotatable=0;points=[[0,0.5],[1,0.5]];portConstraint=eastwest;" vertex="1" parent="4JAjK0Tffetzs99QHqa4-7">
          <mxGeometry y="52" width="160" height="22" as="geometry" />
        </mxCell>
        <mxCell id="4JAjK0Tffetzs99QHqa4-11" value="private int length" style="text;align=left;verticalAlign=top;spacingLeft=4;spacingRight=4;overflow=hidden;rotatable=0;points=[[0,0.5],[1,0.5]];portConstraint=eastwest;rounded=0;shadow=0;html=0;" vertex="1" parent="4JAjK0Tffetzs99QHqa4-7">
          <mxGeometry y="74" width="160" height="26" as="geometry" />
        </mxCell>
        <mxCell id="4JAjK0Tffetzs99QHqa4-19" value=" boolean Hit[]" style="text;align=left;verticalAlign=top;spacingLeft=4;spacingRight=4;overflow=hidden;rotatable=0;points=[[0,0.5],[1,0.5]];portConstraint=eastwest;rounded=0;shadow=0;html=0;" vertex="1" parent="4JAjK0Tffetzs99QHqa4-7">
          <mxGeometry y="100" width="160" height="26" as="geometry" />
        </mxCell>
        <mxCell id="4JAjK0Tffetzs99QHqa4-20" value="private boolean Horizontal" style="text;align=left;verticalAlign=top;spacingLeft=4;spacingRight=4;overflow=hidden;rotatable=0;points=[[0,0.5],[1,0.5]];portConstraint=eastwest;rounded=0;shadow=0;html=0;" vertex="1" parent="4JAjK0Tffetzs99QHqa4-7">
          <mxGeometry y="126" width="160" height="26" as="geometry" />
        </mxCell>
        <mxCell id="4JAjK0Tffetzs99QHqa4-12" value="" style="line;html=1;strokeWidth=1;align=left;verticalAlign=middle;spacingTop=-1;spacingLeft=3;spacingRight=3;rotatable=0;labelPosition=right;points=[];portConstraint=eastwest;" vertex="1" parent="4JAjK0Tffetzs99QHqa4-7">
          <mxGeometry y="152" width="160" height="8" as="geometry" />
        </mxCell>
        <object label="okToPlaceShipAt" ocean="" id="4JAjK0Tffetzs99QHqa4-13">
          <mxCell style="text;align=left;verticalAlign=top;spacingLeft=4;spacingRight=4;overflow=hidden;rotatable=0;points=[[0,0.5],[1,0.5]];portConstraint=eastwest;" vertex="1" parent="4JAjK0Tffetzs99QHqa4-7">
            <mxGeometry y="160" width="160" height="26" as="geometry" />
          </mxCell>
        </object>
        <object label="placeShipAt" ocean="" id="4JAjK0Tffetzs99QHqa4-14">
          <mxCell style="text;align=left;verticalAlign=top;spacingLeft=4;spacingRight=4;overflow=hidden;rotatable=0;points=[[0,0.5],[1,0.5]];portConstraint=eastwest;" vertex="1" parent="4JAjK0Tffetzs99QHqa4-7">
            <mxGeometry y="186" width="160" height="26" as="geometry" />
          </mxCell>
        </object>
        <object label="wasShootAt" ocean="" id="4JAjK0Tffetzs99QHqa4-15">
          <mxCell style="text;align=left;verticalAlign=top;spacingLeft=4;spacingRight=4;overflow=hidden;rotatable=0;points=[[0,0.5],[1,0.5]];portConstraint=eastwest;" vertex="1" parent="4JAjK0Tffetzs99QHqa4-7">
            <mxGeometry y="212" width="160" height="26" as="geometry" />
          </mxCell>
        </object>
        <object label="shootAt" ocean="" id="4JAjK0Tffetzs99QHqa4-16">
          <mxCell style="text;align=left;verticalAlign=top;spacingLeft=4;spacingRight=4;overflow=hidden;rotatable=0;points=[[0,0.5],[1,0.5]];portConstraint=eastwest;" vertex="1" parent="4JAjK0Tffetzs99QHqa4-7">
            <mxGeometry y="238" width="160" height="26" as="geometry" />
          </mxCell>
        </object>
        <object label="toString" ocean="" id="4JAjK0Tffetzs99QHqa4-17">
          <mxCell style="text;align=left;verticalAlign=top;spacingLeft=4;spacingRight=4;overflow=hidden;rotatable=0;points=[[0,0.5],[1,0.5]];portConstraint=eastwest;fontColor=#FF0080;" vertex="1" parent="4JAjK0Tffetzs99QHqa4-7">
            <mxGeometry y="264" width="160" height="26" as="geometry" />
          </mxCell>
        </object>
        <object label="abstract shipType()" ocean="" id="4JAjK0Tffetzs99QHqa4-21">
          <mxCell style="text;align=left;verticalAlign=top;spacingLeft=4;spacingRight=4;overflow=hidden;rotatable=0;points=[[0,0.5],[1,0.5]];portConstraint=eastwest;" vertex="1" parent="4JAjK0Tffetzs99QHqa4-7">
            <mxGeometry y="290" width="160" height="26" as="geometry" />
          </mxCell>
        </object>
        <object label="Submarine" placeAllShipsRandomly="" id="4JAjK0Tffetzs99QHqa4-64">
          <mxCell style="swimlane;fontStyle=0;align=center;verticalAlign=top;childLayout=stackLayout;horizontal=1;startSize=26;horizontalStack=0;resizeParent=1;resizeLast=0;collapsible=1;marginBottom=0;rounded=0;shadow=0;strokeWidth=1;" vertex="1" parent="WIyWlLk6GJQsqaUBKTNV-1">
            <mxGeometry x="640" y="130" width="160" height="90" as="geometry">
              <mxRectangle x="550" y="140" width="160" height="26" as="alternateBounds" />
            </mxGeometry>
          </mxCell>
        </object>
        <mxCell id="4JAjK0Tffetzs99QHqa4-65" value="" style="line;html=1;strokeWidth=1;align=left;verticalAlign=middle;spacingTop=-1;spacingLeft=3;spacingRight=3;rotatable=0;labelPosition=right;points=[];portConstraint=eastwest;" vertex="1" parent="4JAjK0Tffetzs99QHqa4-64">
          <mxGeometry y="26" width="160" height="8" as="geometry" />
        </mxCell>
        <object label="shootAt" ocean="" id="4JAjK0Tffetzs99QHqa4-67">
          <mxCell style="text;align=left;verticalAlign=top;spacingLeft=4;spacingRight=4;overflow=hidden;rotatable=0;points=[[0,0.5],[1,0.5]];portConstraint=eastwest;fontColor=#FF0080;" vertex="1" parent="4JAjK0Tffetzs99QHqa4-64">
            <mxGeometry y="34" width="160" height="26" as="geometry" />
          </mxCell>
        </object>
        <object label="Submarine()" ocean="" id="4JAjK0Tffetzs99QHqa4-70">
          <mxCell style="text;align=left;verticalAlign=top;spacingLeft=4;spacingRight=4;overflow=hidden;rotatable=0;points=[[0,0.5],[1,0.5]];portConstraint=eastwest;" vertex="1" parent="4JAjK0Tffetzs99QHqa4-64">
            <mxGeometry y="60" width="160" height="26" as="geometry" />
          </mxCell>
        </object>
        <object label="LightCruiser" placeAllShipsRandomly="" id="4JAjK0Tffetzs99QHqa4-46">
          <mxCell style="swimlane;fontStyle=0;align=center;verticalAlign=top;childLayout=stackLayout;horizontal=1;startSize=26;horizontalStack=0;resizeParent=1;resizeLast=0;collapsible=1;marginBottom=0;rounded=0;shadow=0;strokeWidth=1;" vertex="1" parent="WIyWlLk6GJQsqaUBKTNV-1">
            <mxGeometry x="650" y="240" width="160" height="90" as="geometry">
              <mxRectangle x="550" y="140" width="160" height="26" as="alternateBounds" />
            </mxGeometry>
          </mxCell>
        </object>
        <mxCell id="4JAjK0Tffetzs99QHqa4-47" value="" style="line;html=1;strokeWidth=1;align=left;verticalAlign=middle;spacingTop=-1;spacingLeft=3;spacingRight=3;rotatable=0;labelPosition=right;points=[];portConstraint=eastwest;" vertex="1" parent="4JAjK0Tffetzs99QHqa4-46">
          <mxGeometry y="26" width="160" height="8" as="geometry" />
        </mxCell>
        <object label="getShipType" ocean="" id="4JAjK0Tffetzs99QHqa4-48">
          <mxCell style="text;align=left;verticalAlign=top;spacingLeft=4;spacingRight=4;overflow=hidden;rotatable=0;points=[[0,0.5],[1,0.5]];portConstraint=eastwest;fontColor=#FF0080;" vertex="1" parent="4JAjK0Tffetzs99QHqa4-46">
            <mxGeometry y="34" width="160" height="26" as="geometry" />
          </mxCell>
        </object>
        <object label="LightCruiser()" ocean="" id="4JAjK0Tffetzs99QHqa4-73">
          <mxCell style="text;align=left;verticalAlign=top;spacingLeft=4;spacingRight=4;overflow=hidden;rotatable=0;points=[[0,0.5],[1,0.5]];portConstraint=eastwest;" vertex="1" parent="4JAjK0Tffetzs99QHqa4-46">
            <mxGeometry y="60" width="160" height="26" as="geometry" />
          </mxCell>
        </object>
        <object label="Cruiser" placeAllShipsRandomly="" id="4JAjK0Tffetzs99QHqa4-40">
          <mxCell style="swimlane;fontStyle=0;align=center;verticalAlign=top;childLayout=stackLayout;horizontal=1;startSize=26;horizontalStack=0;resizeParent=1;resizeLast=0;collapsible=1;marginBottom=0;rounded=0;shadow=0;strokeWidth=1;" vertex="1" parent="WIyWlLk6GJQsqaUBKTNV-1">
            <mxGeometry x="650" y="360" width="160" height="90" as="geometry">
              <mxRectangle x="550" y="140" width="160" height="26" as="alternateBounds" />
            </mxGeometry>
          </mxCell>
        </object>
        <mxCell id="4JAjK0Tffetzs99QHqa4-41" value="" style="line;html=1;strokeWidth=1;align=left;verticalAlign=middle;spacingTop=-1;spacingLeft=3;spacingRight=3;rotatable=0;labelPosition=right;points=[];portConstraint=eastwest;" vertex="1" parent="4JAjK0Tffetzs99QHqa4-40">
          <mxGeometry y="26" width="160" height="8" as="geometry" />
        </mxCell>
        <object label="getShipType" ocean="" id="4JAjK0Tffetzs99QHqa4-42">
          <mxCell style="text;align=left;verticalAlign=top;spacingLeft=4;spacingRight=4;overflow=hidden;rotatable=0;points=[[0,0.5],[1,0.5]];portConstraint=eastwest;fontColor=#FF0080;" vertex="1" parent="4JAjK0Tffetzs99QHqa4-40">
            <mxGeometry y="34" width="160" height="26" as="geometry" />
          </mxCell>
        </object>
        <object label="Cruiser()" ocean="" id="4JAjK0Tffetzs99QHqa4-43">
          <mxCell style="text;align=left;verticalAlign=top;spacingLeft=4;spacingRight=4;overflow=hidden;rotatable=0;points=[[0,0.5],[1,0.5]];portConstraint=eastwest;" vertex="1" parent="4JAjK0Tffetzs99QHqa4-40">
            <mxGeometry y="60" width="160" height="26" as="geometry" />
          </mxCell>
        </object>
        <object label="BattleShip" placeAllShipsRandomly="" id="4JAjK0Tffetzs99QHqa4-34">
          <mxCell style="swimlane;fontStyle=0;align=center;verticalAlign=top;childLayout=stackLayout;horizontal=1;startSize=26;horizontalStack=0;resizeParent=1;resizeLast=0;collapsible=1;marginBottom=0;rounded=0;shadow=0;strokeWidth=1;" vertex="1" parent="WIyWlLk6GJQsqaUBKTNV-1">
            <mxGeometry x="570" y="480" width="160" height="90" as="geometry">
              <mxRectangle x="550" y="140" width="160" height="26" as="alternateBounds" />
            </mxGeometry>
          </mxCell>
        </object>
        <mxCell id="4JAjK0Tffetzs99QHqa4-35" value="" style="line;html=1;strokeWidth=1;align=left;verticalAlign=middle;spacingTop=-1;spacingLeft=3;spacingRight=3;rotatable=0;labelPosition=right;points=[];portConstraint=eastwest;" vertex="1" parent="4JAjK0Tffetzs99QHqa4-34">
          <mxGeometry y="26" width="160" height="8" as="geometry" />
        </mxCell>
        <object label="getShipType" ocean="" id="4JAjK0Tffetzs99QHqa4-36">
          <mxCell style="text;align=left;verticalAlign=top;spacingLeft=4;spacingRight=4;overflow=hidden;rotatable=0;points=[[0,0.5],[1,0.5]];portConstraint=eastwest;fontColor=#FF0080;" vertex="1" parent="4JAjK0Tffetzs99QHqa4-34">
            <mxGeometry y="34" width="160" height="26" as="geometry" />
          </mxCell>
        </object>
        <object label="BattleShip()" ocean="" id="4JAjK0Tffetzs99QHqa4-37">
          <mxCell style="text;align=left;verticalAlign=top;spacingLeft=4;spacingRight=4;overflow=hidden;rotatable=0;points=[[0,0.5],[1,0.5]];portConstraint=eastwest;" vertex="1" parent="4JAjK0Tffetzs99QHqa4-34">
            <mxGeometry y="60" width="160" height="26" as="geometry" />
          </mxCell>
        </object>
        <object label="EmptySea" placeAllShipsRandomly="" id="4JAjK0Tffetzs99QHqa4-22">
          <mxCell style="swimlane;fontStyle=0;align=center;verticalAlign=top;childLayout=stackLayout;horizontal=1;startSize=26;horizontalStack=0;resizeParent=1;resizeLast=0;collapsible=1;marginBottom=0;rounded=0;shadow=0;strokeWidth=1;" vertex="1" parent="WIyWlLk6GJQsqaUBKTNV-1">
            <mxGeometry x="390" y="470" width="160" height="150" as="geometry">
              <mxRectangle x="550" y="140" width="160" height="26" as="alternateBounds" />
            </mxGeometry>
          </mxCell>
        </object>
        <mxCell id="4JAjK0Tffetzs99QHqa4-27" value="" style="line;html=1;strokeWidth=1;align=left;verticalAlign=middle;spacingTop=-1;spacingLeft=3;spacingRight=3;rotatable=0;labelPosition=right;points=[];portConstraint=eastwest;" vertex="1" parent="4JAjK0Tffetzs99QHqa4-22">
          <mxGeometry y="26" width="160" height="8" as="geometry" />
        </mxCell>
        <object label="getShipType" ocean="" id="4JAjK0Tffetzs99QHqa4-28">
          <mxCell style="text;align=left;verticalAlign=top;spacingLeft=4;spacingRight=4;overflow=hidden;rotatable=0;points=[[0,0.5],[1,0.5]];portConstraint=eastwest;fontColor=#FF0080;" vertex="1" parent="4JAjK0Tffetzs99QHqa4-22">
            <mxGeometry y="34" width="160" height="26" as="geometry" />
          </mxCell>
        </object>
        <object label="shootAt" ocean="" id="4JAjK0Tffetzs99QHqa4-29">
          <mxCell style="text;align=left;verticalAlign=top;spacingLeft=4;spacingRight=4;overflow=hidden;rotatable=0;points=[[0,0.5],[1,0.5]];portConstraint=eastwest;" vertex="1" parent="4JAjK0Tffetzs99QHqa4-22">
            <mxGeometry y="60" width="160" height="26" as="geometry" />
          </mxCell>
        </object>
        <object label="isSunk" ocean="" id="4JAjK0Tffetzs99QHqa4-30">
          <mxCell style="text;align=left;verticalAlign=top;spacingLeft=4;spacingRight=4;overflow=hidden;rotatable=0;points=[[0,0.5],[1,0.5]];portConstraint=eastwest;" vertex="1" parent="4JAjK0Tffetzs99QHqa4-22">
            <mxGeometry y="86" width="160" height="26" as="geometry" />
          </mxCell>
        </object>
        <object label="toString" ocean="" id="4JAjK0Tffetzs99QHqa4-31">
          <mxCell style="text;align=left;verticalAlign=top;spacingLeft=4;spacingRight=4;overflow=hidden;rotatable=0;points=[[0,0.5],[1,0.5]];portConstraint=eastwest;" vertex="1" parent="4JAjK0Tffetzs99QHqa4-22">
            <mxGeometry y="112" width="160" height="26" as="geometry" />
          </mxCell>
        </object>
        <object label="Destroyer" placeAllShipsRandomly="" id="4JAjK0Tffetzs99QHqa4-52">
          <mxCell style="swimlane;fontStyle=0;align=center;verticalAlign=top;childLayout=stackLayout;horizontal=1;startSize=26;horizontalStack=0;resizeParent=1;resizeLast=0;collapsible=1;marginBottom=0;rounded=0;shadow=0;strokeWidth=1;" vertex="1" parent="WIyWlLk6GJQsqaUBKTNV-1">
            <mxGeometry x="200" y="470" width="160" height="90" as="geometry">
              <mxRectangle x="550" y="140" width="160" height="26" as="alternateBounds" />
            </mxGeometry>
          </mxCell>
        </object>
        <mxCell id="4JAjK0Tffetzs99QHqa4-53" value="" style="line;html=1;strokeWidth=1;align=left;verticalAlign=middle;spacingTop=-1;spacingLeft=3;spacingRight=3;rotatable=0;labelPosition=right;points=[];portConstraint=eastwest;" vertex="1" parent="4JAjK0Tffetzs99QHqa4-52">
          <mxGeometry y="26" width="160" height="8" as="geometry" />
        </mxCell>
        <object label="getShipType" ocean="" id="4JAjK0Tffetzs99QHqa4-54">
          <mxCell style="text;align=left;verticalAlign=top;spacingLeft=4;spacingRight=4;overflow=hidden;rotatable=0;points=[[0,0.5],[1,0.5]];portConstraint=eastwest;fontColor=#FF0080;" vertex="1" parent="4JAjK0Tffetzs99QHqa4-52">
            <mxGeometry y="34" width="160" height="26" as="geometry" />
          </mxCell>
        </object>
        <object label="Destroyer()" ocean="" id="4JAjK0Tffetzs99QHqa4-72">
          <mxCell style="text;align=left;verticalAlign=top;spacingLeft=4;spacingRight=4;overflow=hidden;rotatable=0;points=[[0,0.5],[1,0.5]];portConstraint=eastwest;" vertex="1" parent="4JAjK0Tffetzs99QHqa4-52">
            <mxGeometry y="60" width="160" height="26" as="geometry" />
          </mxCell>
        </object>
        <mxCell id="4JAjK0Tffetzs99QHqa4-74" value="" style="endArrow=classic;html=1;fontColor=#3333FF;entryX=0.5;entryY=1.192;entryDx=0;entryDy=0;entryPerimeter=0;" edge="1" parent="WIyWlLk6GJQsqaUBKTNV-1" target="4JAjK0Tffetzs99QHqa4-21">
          <mxGeometry width="50" height="50" relative="1" as="geometry">
            <mxPoint x="460" y="470" as="sourcePoint" />
            <mxPoint x="510" y="420" as="targetPoint" />
            <Array as="points" />
          </mxGeometry>
        </mxCell>
        <mxCell id="4JAjK0Tffetzs99QHqa4-75" value="" style="endArrow=classic;html=1;fontColor=#3333FF;" edge="1" parent="WIyWlLk6GJQsqaUBKTNV-1">
          <mxGeometry width="50" height="50" relative="1" as="geometry">
            <mxPoint x="590" y="480" as="sourcePoint" />
            <mxPoint x="500" y="330" as="targetPoint" />
          </mxGeometry>
        </mxCell>
        <mxCell id="4JAjK0Tffetzs99QHqa4-76" value="" style="endArrow=classic;html=1;fontColor=#3333FF;entryX=0.938;entryY=1.038;entryDx=0;entryDy=0;entryPerimeter=0;exitX=0;exitY=0.5;exitDx=0;exitDy=0;" edge="1" parent="WIyWlLk6GJQsqaUBKTNV-1" source="4JAjK0Tffetzs99QHqa4-42" target="4JAjK0Tffetzs99QHqa4-21">
          <mxGeometry width="50" height="50" relative="1" as="geometry">
            <mxPoint x="580" y="410" as="sourcePoint" />
            <mxPoint x="630" y="360" as="targetPoint" />
          </mxGeometry>
        </mxCell>
        <mxCell id="4JAjK0Tffetzs99QHqa4-77" value="" style="endArrow=classic;html=1;fontColor=#3333FF;entryX=0.094;entryY=1.115;entryDx=0;entryDy=0;entryPerimeter=0;" edge="1" parent="WIyWlLk6GJQsqaUBKTNV-1" target="4JAjK0Tffetzs99QHqa4-21">
          <mxGeometry width="50" height="50" relative="1" as="geometry">
            <mxPoint x="290" y="470" as="sourcePoint" />
            <mxPoint x="340" y="420" as="targetPoint" />
          </mxGeometry>
        </mxCell>
        <mxCell id="4JAjK0Tffetzs99QHqa4-78" value="" style="endArrow=classic;html=1;fontColor=#3333FF;entryX=1;entryY=0.5;entryDx=0;entryDy=0;exitX=-0.019;exitY=1.038;exitDx=0;exitDy=0;exitPerimeter=0;" edge="1" parent="WIyWlLk6GJQsqaUBKTNV-1" source="4JAjK0Tffetzs99QHqa4-60" target="4JAjK0Tffetzs99QHqa4-11">
          <mxGeometry width="50" height="50" relative="1" as="geometry">
            <mxPoint x="570" y="160" as="sourcePoint" />
            <mxPoint x="620" y="110" as="targetPoint" />
          </mxGeometry>
        </mxCell>
        <mxCell id="4JAjK0Tffetzs99QHqa4-79" value="" style="endArrow=classic;html=1;fontColor=#3333FF;entryX=1;entryY=0.5;entryDx=0;entryDy=0;" edge="1" parent="WIyWlLk6GJQsqaUBKTNV-1" source="4JAjK0Tffetzs99QHqa4-70" target="4JAjK0Tffetzs99QHqa4-13">
          <mxGeometry width="50" height="50" relative="1" as="geometry">
            <mxPoint x="570" y="210" as="sourcePoint" />
            <mxPoint x="620" y="160" as="targetPoint" />
          </mxGeometry>
        </mxCell>
        <mxCell id="4JAjK0Tffetzs99QHqa4-80" value="" style="endArrow=classic;html=1;fontColor=#3333FF;entryX=1.019;entryY=0.269;entryDx=0;entryDy=0;entryPerimeter=0;exitX=-0.025;exitY=0.769;exitDx=0;exitDy=0;exitPerimeter=0;" edge="1" parent="WIyWlLk6GJQsqaUBKTNV-1" source="4JAjK0Tffetzs99QHqa4-48" target="4JAjK0Tffetzs99QHqa4-16">
          <mxGeometry width="50" height="50" relative="1" as="geometry">
            <mxPoint x="570" y="320" as="sourcePoint" />
            <mxPoint x="620" y="270" as="targetPoint" />
          </mxGeometry>
        </mxCell>
        <mxCell id="4JAjK0Tffetzs99QHqa4-81" value="" style="endArrow=classic;html=1;fontColor=#3333FF;" edge="1" parent="WIyWlLk6GJQsqaUBKTNV-1">
          <mxGeometry width="50" height="50" relative="1" as="geometry">
            <mxPoint x="60" y="680" as="sourcePoint" />
            <mxPoint x="110" y="680" as="targetPoint" />
          </mxGeometry>
        </mxCell>
        <mxCell id="4JAjK0Tffetzs99QHqa4-82" value="&lt;font color=&quot;#ff0080&quot;&gt;Extends&lt;/font&gt;" style="rounded=1;whiteSpace=wrap;html=1;fontColor=#3333FF;" vertex="1" parent="WIyWlLk6GJQsqaUBKTNV-1">
          <mxGeometry x="130" y="650" width="120" height="60" as="geometry" />
        </mxCell>
      </root>
    </mxGraphModel>
  </diagram>
</mxfile>
